<?xml version="1.0" encoding="UTF-8" standalone="no"?>
<svg width="244px" height="36px" viewBox="0 0 244 36" version="1.1" xmlns="http://www.w3.org/2000/svg" xmlns:xlink="http://www.w3.org/1999/xlink">
    <!-- Generator: Sketch 3.8.3 (29802) - http://www.bohemiancoding.com/sketch -->
    <title>logo</title>
    <desc>Created with Sketch.</desc>
    <defs></defs>
    <g id="Page-1" stroke="none" stroke-width="1" fill="none" fill-rule="evenodd">
        <g id="logo">
            <g>
                <path d="M15.7882,5.59 L10.313,5.59 L10.313,21.2573 L5.9794,21.2573 L5.9794,5.59 L0.5363,5.59 L0.5363,2.0739 L15.7882,2.0739 L15.7882,5.59 Z M27.8022,15.6133 L18.8657,15.6133 C19.0075,17.5998 20.2632,18.595 22.6239,18.595 C24.1308,18.595 25.4551,18.239 26.5967,17.5267 L26.5967,20.577 C25.3318,21.2528 23.6877,21.5907 21.6604,21.5907 C19.4502,21.5907 17.7333,20.9787 16.5096,19.7504 C15.2904,18.5267 14.6784,16.8143 14.6784,14.6223 C14.6784,12.3483 15.336,10.5446 16.6601,9.2158 C17.9799,7.8869 19.601,7.225 21.528,7.225 C23.5233,7.225 25.0713,7.8186 26.163,9.0012 C27.2543,10.1883 27.8022,11.8004 27.8022,13.8323 L27.8022,15.6133 Z M23.8842,13.015 C23.8842,11.056 23.0896,10.0744 21.5005,10.0744 C20.8248,10.0744 20.2357,10.3527 19.7425,10.9146 C19.2447,11.4761 18.9479,12.1794 18.8382,13.015 L23.8842,13.015 Z M43.547,7.5581 L39.0263,14.1931 L43.5195,21.2573 L38.6518,21.2573 L36.6699,17.5632 C36.5103,17.271 36.3184,16.8554 36.0947,16.3211 L36.0443,16.3211 C35.9073,16.6955 35.7248,17.0975 35.4918,17.5267 L33.501,21.2573 L28.6424,21.2573 L33.2725,14.4352 L28.9253,7.5581 L33.8205,7.5581 L35.775,11.3984 C36.0352,11.9053 36.218,12.3347 36.3229,12.6817 L36.3776,12.6817 C36.5193,12.2616 36.711,11.8279 36.953,11.3712 L38.9441,7.5581 L43.547,7.5581 Z M53.7254,21.0975 C53.1,21.4263 52.1592,21.5907 50.9035,21.5907 C47.9262,21.5907 46.4329,20.0427 46.4329,16.9512 L46.4329,10.677 L44.2137,10.677 L44.2137,7.5581 L46.4329,7.5581 L46.4329,4.6038 L50.6478,3.3982 L50.6478,7.5581 L53.7254,7.5581 L53.7254,10.677 L50.6478,10.677 L50.6478,16.2159 C50.6478,17.6409 51.2139,18.3532 52.3466,18.3532 C52.7939,18.3532 53.2551,18.2254 53.7254,17.9649 L53.7254,21.0975 Z M60.3879,19.6637 L60.3332,19.6637 L60.3332,21.2573 L56.1093,21.2573 L56.1093,0.978 L60.3332,0.978 L60.3332,9.6177 L60.3879,9.6177 C61.4336,8.0241 62.9175,7.225 64.8445,7.225 C66.6074,7.225 67.968,7.8322 68.9225,9.0423 C69.8769,10.2569 70.3562,11.9146 70.3562,14.0196 C70.3562,16.3029 69.7992,18.1338 68.6849,19.5174 C67.5661,20.901 66.0776,21.5907 64.2144,21.5907 C62.5295,21.5907 61.2556,20.9515 60.3879,19.6637 L60.3879,19.6637 Z M60.2691,13.8873 L60.2691,15.289 C60.2691,16.1748 60.5203,16.9056 61.0317,17.4856 C61.5385,18.0655 62.1916,18.3532 62.9861,18.3532 C63.9451,18.3532 64.694,17.9833 65.2235,17.2389 C65.7533,16.4946 66.0229,15.4398 66.0229,14.0743 C66.0229,12.9419 65.7763,12.0561 65.2921,11.4169 C64.8034,10.7822 64.114,10.4624 63.2098,10.4624 C62.3651,10.4624 61.6618,10.7774 61.1048,11.4123 C60.5478,12.0425 60.2691,12.8688 60.2691,13.8873 L60.2691,13.8873 Z M79.6261,21.5907 C77.3428,21.5907 75.5482,20.9515 74.2422,19.6728 C72.9363,18.3943 72.2832,16.6544 72.2832,14.4627 C72.2832,12.1975 72.959,10.4213 74.3154,9.1426 C75.6715,7.8642 77.5072,7.225 79.8132,7.225 C82.0871,7.225 83.8727,7.8642 85.165,9.1426 C86.4573,10.4213 87.1056,12.1153 87.1056,14.2206 C87.1056,16.4946 86.4389,18.2937 85.1057,19.6135 C83.7723,20.9331 81.9457,21.5907 79.6261,21.5907 L79.6261,21.5907 Z M79.7355,10.4624 C78.7354,10.4624 77.9593,10.8049 77.4068,11.4897 C76.8541,12.1794 76.5757,13.152 76.5757,14.4077 C76.5757,17.038 77.6396,18.3532 79.763,18.3532 C81.7858,18.3532 82.7995,17.0014 82.7995,14.3028 C82.7995,11.7409 81.7767,10.4624 79.7355,10.4624 L79.7355,10.4624 Z M96.3754,21.5907 C94.0921,21.5907 92.2975,20.9515 90.9916,19.6728 C89.6857,18.3943 89.0326,16.6544 89.0326,14.4627 C89.0326,12.1975 89.7083,10.4213 91.0647,9.1426 C92.4208,7.8642 94.2565,7.225 96.5625,7.225 C98.8365,7.225 100.622,7.8642 101.9143,9.1426 C103.2066,10.4213 103.8549,12.1153 103.8549,14.2206 C103.8549,16.4946 103.1882,18.2937 101.8551,19.6135 C100.5217,20.9331 98.695,21.5907 96.3754,21.5907 L96.3754,21.5907 Z M96.4849,10.4624 C95.4848,10.4624 94.7087,10.8049 94.1562,11.4897 C93.6034,12.1794 93.3251,13.152 93.3251,14.4077 C93.3251,17.038 94.3889,18.3532 96.5123,18.3532 C98.5351,18.3532 99.5488,17.0014 99.5488,14.3028 C99.5488,11.7409 98.5261,10.4624 96.4849,10.4624 L96.4849,10.4624 Z M120.3259,21.2573 L115.2525,21.2573 L110.878,14.4627 L110.8233,14.4627 L110.8233,21.2573 L106.5994,21.2573 L106.5994,0.978 L110.8233,0.978 L110.8233,13.8873 L110.878,13.8873 L114.9602,7.5581 L119.9741,7.5581 L115.0654,13.9921 L120.3259,21.2573 Z" id="Fill-20" fill="#57585A"></path>
                <path d="M138.4223,21.2573 L133.4588,21.2573 L130.4768,16.3211 C130.2531,15.9466 130.0386,15.6133 129.833,15.3165 C129.6275,15.0242 129.422,14.7731 129.212,14.563 C129.0019,14.353 128.7828,14.1931 128.5543,14.0789 C128.3261,13.9695 128.0795,13.9145 127.8148,13.9145 L126.6503,13.9145 L126.6503,21.2573 L122.3258,21.2573 L122.3258,2.0739 L129.1754,2.0739 C133.8333,2.0739 136.162,3.8138 136.162,7.2888 C136.162,7.96 136.0571,8.5766 135.8516,9.1426 C135.646,9.709 135.3583,10.2204 134.9839,10.677 C134.6094,11.1291 134.1573,11.5217 133.6278,11.8506 C133.0934,12.1839 132.5044,12.4396 131.8513,12.627 L131.8513,12.6817 C132.139,12.773 132.4131,12.9147 132.6824,13.1154 C132.9517,13.3164 133.2077,13.5494 133.4588,13.8187 C133.71,14.0882 133.9472,14.3757 134.1757,14.6818 C134.4039,14.9877 134.6094,15.289 134.7968,15.5858 L138.4223,21.2573 Z M126.6503,5.3116 L126.6503,10.6495 L128.5226,10.6495 C129.4495,10.6495 130.1936,10.3802 130.7554,9.8459 C131.3263,9.3025 131.6138,8.6267 131.6138,7.8276 C131.6138,6.1473 130.6092,5.3116 128.6,5.3116 L126.6503,5.3116 Z M151.4277,15.6133 L142.4911,15.6133 C142.6329,17.5998 143.8886,18.595 146.2493,18.595 C147.7562,18.595 149.0806,18.239 150.2221,17.5267 L150.2221,20.577 C148.9573,21.2528 147.3132,21.5907 145.2858,21.5907 C143.0757,21.5907 141.3587,20.9787 140.135,19.7504 C138.9158,18.5267 138.3038,16.8143 138.3038,14.6223 C138.3038,12.3483 138.9614,10.5446 140.2855,9.2158 C141.6053,7.8869 143.2265,7.225 145.1534,7.225 C147.1488,7.225 148.6968,7.8186 149.7884,9.0012 C150.8797,10.1883 151.4277,11.8004 151.4277,13.8323 L151.4277,15.6133 Z M147.5096,13.015 C147.5096,11.056 146.7151,10.0744 145.126,10.0744 C144.4502,10.0744 143.8611,10.3527 143.3679,10.9146 C142.8701,11.4761 142.5734,12.1794 142.4637,13.015 L147.5096,13.015 Z M167.1724,21.2573 L162.9576,21.2573 L162.9576,13.6452 C162.9576,11.5217 162.1996,10.4624 160.6836,10.4624 C159.9529,10.4624 159.3502,10.7411 158.8799,11.3026 C158.4049,11.8642 158.1676,12.5813 158.1676,13.4442 L158.1676,21.2573 L153.9437,21.2573 L153.9437,7.5581 L158.1676,7.5581 L158.1676,9.7271 L158.2223,9.7271 C159.2314,8.0558 160.6972,7.225 162.6242,7.225 C165.6564,7.225 167.1724,9.1063 167.1724,12.8688 L167.1724,21.2573 Z M178.7981,21.0975 C178.1728,21.4263 177.232,21.5907 175.9763,21.5907 C172.999,21.5907 171.5057,20.0427 171.5057,16.9512 L171.5057,10.677 L169.2865,10.677 L169.2865,7.5581 L171.5057,7.5581 L171.5057,4.6038 L175.7206,3.3982 L175.7206,7.5581 L178.7981,7.5581 L178.7981,10.677 L175.7206,10.677 L175.7206,16.2159 C175.7206,17.6409 176.2866,18.3532 177.4194,18.3532 C177.8667,18.3532 178.3279,18.2254 178.7981,17.9649 L178.7981,21.0975 Z M192.5796,21.2573 L188.5794,21.2573 L188.5794,19.2892 L188.5247,19.2892 C187.6068,20.8236 186.2462,21.5907 184.4425,21.5907 C183.1136,21.5907 182.0679,21.2162 181.3054,20.4628 C180.5426,19.7093 180.1636,18.7002 180.1636,17.4445 C180.1636,14.7867 181.7391,13.2526 184.8853,12.8416 L188.6069,12.3483 C188.6069,10.8505 187.7942,10.1016 186.1685,10.1016 C184.5383,10.1016 182.9858,10.5857 181.5154,11.5583 L181.5154,8.3756 C182.1045,8.0697 182.9081,7.8047 183.9308,7.572 C184.9493,7.3389 185.8808,7.225 186.721,7.225 C190.6251,7.225 192.5796,9.1747 192.5796,13.0697 L192.5796,21.2573 Z M188.6069,15.6909 L188.6069,14.7686 L186.1183,15.0883 C184.7438,15.2663 184.0587,15.8874 184.0587,16.9512 C184.0587,17.4308 184.2231,17.828 184.5564,18.1338 C184.8943,18.44 185.3465,18.595 185.9174,18.595 C186.7119,18.595 187.3557,18.3212 187.858,17.7733 C188.3557,17.2253 188.6069,16.5311 188.6069,15.6909 L188.6069,15.6909 Z M200.1507,21.2573 L195.9268,21.2573 L195.9268,0.978 L200.1507,0.978 L200.1507,21.2573 Z M202.8127,20.8965 L202.8127,17.472 C203.5114,17.892 204.2054,18.2024 204.895,18.408 C205.5844,18.6135 206.2375,18.7138 206.854,18.7138 C207.603,18.7138 208.1965,18.6135 208.6257,18.408 C209.0594,18.2024 209.2743,17.892 209.2743,17.472 C209.2743,17.2024 209.1782,16.9787 208.982,16.8004 C208.7856,16.6224 208.5344,16.4671 208.2237,16.3347 C207.9179,16.2023 207.58,16.079 207.2146,15.9741 C206.8495,15.8644 206.4977,15.7457 206.1598,15.6133 C205.6164,15.4078 205.1371,15.1841 204.7215,14.9511 C204.306,14.7138 203.9587,14.4397 203.6758,14.1245 C203.3972,13.8141 203.1826,13.4533 203.0363,13.0425 C202.8904,12.6315 202.8127,12.1474 202.8127,11.5858 C202.8127,10.8185 202.9816,10.1566 203.315,9.6038 C203.6483,9.0514 204.0959,8.5992 204.6529,8.2477 C205.21,7.8962 205.8494,7.6357 206.5663,7.4713 C207.2832,7.3069 208.0321,7.225 208.8083,7.225 C209.4157,7.225 210.0277,7.2706 210.6533,7.3664 C211.2786,7.4577 211.8952,7.5946 212.5026,7.7729 L212.5026,11.0379 C211.9638,10.7227 211.3929,10.4899 210.7812,10.3346 C210.1692,10.1793 209.5711,10.1016 208.982,10.1016 C208.7034,10.1016 208.4431,10.1246 208.2011,10.1747 C207.9545,10.2204 207.7353,10.2935 207.548,10.3893 C207.3609,10.4806 207.2146,10.5994 207.1097,10.7502 C207,10.8961 206.9499,11.0651 206.9499,11.2525 C206.9499,11.4991 207.0275,11.7137 207.1874,11.8917 C207.3518,12.0697 207.557,12.225 207.8175,12.3529 C208.0778,12.4852 208.3655,12.5995 208.6804,12.6998 C208.9956,12.805 209.3106,12.9099 209.6258,13.015 C210.1873,13.2115 210.6941,13.4261 211.1508,13.6588 C211.6029,13.8918 211.9958,14.1611 212.3198,14.4763 C212.6441,14.7867 212.8952,15.1521 213.0687,15.5722 C213.2422,15.9923 213.3289,16.49 213.3289,17.07 C213.3289,17.8827 213.1555,18.5769 212.7994,19.1523 C212.4477,19.7275 211.9819,20.1935 211.3974,20.5541 C210.8129,20.9149 210.1371,21.1797 209.3746,21.3441 C208.6121,21.5085 207.8221,21.5907 207,21.5907 C205.4931,21.5907 204.1005,21.3577 202.8127,20.8965 L202.8127,20.8965 Z" id="Fill-21" fill="#7CB100"></path>
                <path d="M216.1922,21.9 C215.8637,21.9 215.591,21.799 215.3741,21.5995 C215.1553,21.3977 215.0479,21.1505 215.0479,20.8565 C215.0479,20.5538 215.1596,20.3069 215.3829,20.1136 C215.6083,19.9202 215.8875,19.8239 216.2223,19.8239 C216.5638,19.8239 216.8408,19.9225 217.0576,20.1178 C217.2722,20.3111 217.3797,20.558 217.3797,20.8565 C217.3797,21.1612 217.2702,21.4127 217.0511,21.608 C216.83,21.8033 216.5443,21.9 216.1922,21.9 L216.1922,21.9 Z M223.6768,21.5113 C223.2281,21.771 222.5798,21.9 221.734,21.9 C220.7441,21.9 219.9433,21.6015 219.3313,21.0002 C218.7193,20.4013 218.4123,19.6283 218.4123,18.6792 C218.4123,17.5845 218.7409,16.7233 219.3957,16.092 C220.0527,15.4611 220.9309,15.1453 222.0302,15.1453 C222.7882,15.1453 223.3378,15.2462 223.6768,15.4457 L223.6768,17.1335 C223.2627,16.8223 222.7989,16.6675 222.2878,16.6675 C221.7167,16.6675 221.2657,16.833 220.9309,17.1678 C220.5981,17.5006 220.4306,17.9601 220.4306,18.5483 C220.4306,19.1175 220.5916,19.5662 220.9094,19.8902 C221.2271,20.2167 221.6673,20.3777 222.2235,20.3777 C222.7193,20.3777 223.2026,20.223 223.6768,19.9117 L223.6768,21.5113 Z M228.0484,21.9 C226.9749,21.9 226.1311,21.5995 225.5171,20.9983 C224.9028,20.397 224.5958,19.5789 224.5958,18.5483 C224.5958,17.4836 224.9136,16.6482 225.5514,16.047 C226.1889,15.4457 227.052,15.1453 228.1363,15.1453 C229.2055,15.1453 230.0451,15.4457 230.6526,16.047 C231.2603,16.6482 231.5651,17.4447 231.5651,18.4346 C231.5651,19.5038 231.2518,20.3497 230.6248,20.9702 C229.9978,21.5907 229.1389,21.9 228.0484,21.9 L228.0484,21.9 Z M228.0997,16.6675 C227.6297,16.6675 227.2646,16.8285 227.005,17.1508 C226.745,17.4748 226.6141,17.9323 226.6141,18.5228 C226.6141,19.7592 227.1144,20.3777 228.1128,20.3777 C229.0638,20.3777 229.5406,19.7422 229.5406,18.4731 C229.5406,17.2687 229.0595,16.6675 228.0997,16.6675 L228.0997,16.6675 Z M243.0822,21.7432 L241.1003,21.7432 L241.1003,18.0695 C241.1003,17.1335 240.757,16.6675 240.0699,16.6675 C239.7433,16.6675 239.4771,16.8072 239.2711,17.0884 C239.065,17.3696 238.9618,17.7197 238.9618,18.1384 L238.9618,21.7432 L236.9758,21.7432 L236.9758,18.0309 C236.9758,17.1227 236.6365,16.6675 235.9625,16.6675 C235.6231,16.6675 235.3505,16.8007 235.1486,17.0691 C234.9448,17.3373 234.8416,17.7024 234.8416,18.1642 L234.8416,21.7432 L232.8557,21.7432 L232.8557,15.302 L234.8416,15.302 L234.8416,16.3089 L234.8674,16.3089 C235.0735,15.9653 235.3612,15.6841 235.7329,15.4696 C236.1042,15.2527 236.5101,15.1453 236.95,15.1453 C237.8605,15.1453 238.483,15.5447 238.8181,16.3455 C239.3096,15.5447 240.029,15.1453 240.9823,15.1453 C242.3821,15.1453 243.0822,16.0084 243.0822,17.7367 L243.0822,21.7432 Z" id="Fill-22" fill="#A6A9AB"></path>
                <path d="M4.4671,35.1162 L4.4671,33.9514 C4.6783,34.1289 4.9079,34.2618 5.1551,34.35 C5.4023,34.4382 5.6517,34.4829 5.904,34.4829 C6.0529,34.4829 6.1821,34.4691 6.2912,34.443 C6.4018,34.4158 6.4936,34.3798 6.5682,34.3313 C6.6427,34.2842 6.6974,34.2284 6.7334,34.1649 C6.7706,34.1003 6.7882,34.0308 6.7882,33.9551 C6.7882,33.8534 6.7595,33.7627 6.7011,33.683 C6.6427,33.6025 6.5634,33.528 6.4627,33.4608 C6.3621,33.3925 6.2431,33.3267 6.1039,33.2646 C5.9661,33.2014 5.817,33.1368 5.6569,33.071 C5.2495,32.9021 4.9454,32.6946 4.7455,32.4488 C4.5454,32.2042 4.4462,31.9085 4.4462,31.5621 C4.4462,31.2903 4.4995,31.0567 4.6089,30.862 C4.718,30.6655 4.8671,30.5054 5.0545,30.3787 C5.2433,30.2534 5.4607,30.1601 5.7079,30.1006 C5.9548,30.0411 6.217,30.0113 6.4936,30.0113 C6.7658,30.0113 7.0067,30.0286 7.2165,30.0609 C7.4251,30.0932 7.6187,30.1442 7.7964,30.2123 L7.7964,31.3002 C7.7083,31.2393 7.6139,31.186 7.5107,31.14 C7.4078,31.0941 7.3009,31.0556 7.1915,31.0244 C7.0835,30.9946 6.9744,30.9722 6.8664,30.9575 C6.7584,30.9439 6.6563,30.9362 6.5597,30.9362 C6.4256,30.9362 6.3051,30.9487 6.1957,30.9737 C6.0866,30.9997 5.9945,31.0357 5.9188,31.0817 C5.8442,31.1276 5.7861,31.1823 5.7439,31.2469 C5.7028,31.3113 5.6829,31.3833 5.6829,31.4629 C5.6829,31.5511 5.7053,31.6293 5.7512,31.6976 C5.7972,31.7671 5.8629,31.8328 5.9485,31.8949 C6.033,31.9559 6.1362,32.0168 6.2578,32.0763 C6.3783,32.1359 6.516,32.1968 6.6688,32.26 C6.8774,32.347 7.0637,32.44 7.2301,32.5381 C7.3965,32.6365 7.5393,32.7481 7.6573,32.8709 C7.7766,32.9953 7.8673,33.1368 7.9305,33.2958 C7.9937,33.4534 8.0249,33.6385 8.0249,33.8494 C8.0249,34.1414 7.9702,34.3849 7.8597,34.5833 C7.7491,34.7809 7.6003,34.941 7.4101,35.0626 C7.2216,35.1857 7.0016,35.2738 6.7507,35.3271 C6.4987,35.3807 6.2343,35.4068 5.9548,35.4068 C5.6693,35.4068 5.3972,35.3832 5.139,35.3348 C4.8807,35.2863 4.6559,35.2129 4.4671,35.1162 L4.4671,35.1162 Z M18.5276,35.316 L17.2474,35.316 L16.8761,34.155 L15.0208,34.155 L14.6534,35.316 L13.3793,35.316 L15.2791,30.0994 L16.6726,30.0994 L18.5276,35.316 Z M16.6065,33.2536 L16.0467,31.5 C16.0056,31.3685 15.9758,31.212 15.9585,31.0306 L15.9299,31.0306 C15.9174,31.1834 15.8877,31.3351 15.8392,31.4853 L15.2717,33.2536 L16.6065,33.2536 Z M28.1688,30.0994 L26.3705,35.316 L25.0393,35.316 L23.2637,30.0994 L24.5302,30.0994 L25.6181,33.7303 C25.6765,33.9265 25.7111,34.0991 25.7236,34.2505 L25.7449,34.2505 C25.7621,34.0881 25.7993,33.9092 25.8577,33.7153 L26.938,30.0994 L28.1688,30.0994 Z M36.9788,35.316 L33.8497,35.316 L33.8497,30.0994 L36.8584,30.0994 L36.8584,31.0556 L35.0255,31.0556 L35.0255,32.2166 L36.7317,32.2166 L36.7317,33.1691 L35.0255,33.1691 L35.0255,34.3625 L36.9788,34.3625 L36.9788,35.316 Z M54.2727,35.316 L53.1117,35.316 L53.1117,32.1943 C53.1117,31.8578 53.1267,31.4853 53.1553,31.078 L53.1267,31.078 C53.0657,31.3983 53.0113,31.6279 52.9628,31.7696 L51.7408,35.316 L50.7799,35.316 L49.5355,31.8056 C49.502,31.7112 49.4473,31.4677 49.3716,31.078 L49.3393,31.078 C49.3702,31.5919 49.3864,32.0429 49.3864,32.4315 L49.3864,35.316 L48.3273,35.316 L48.3273,30.0994 L50.0483,30.0994 L51.1149,33.1915 C51.1994,33.4384 51.2615,33.687 51.3,33.9376 L51.3224,33.9376 C51.3871,33.6484 51.4565,33.3976 51.5296,33.1838 L52.5952,30.0994 L54.2727,30.0994 L54.2727,35.316 Z M62.7194,35.4068 C61.9719,35.4068 61.3633,35.1633 60.8928,34.6777 C60.4222,34.191 60.1875,33.5577 60.1875,32.7768 C60.1875,31.9522 60.4259,31.2852 60.9038,30.7761 C61.382,30.267 62.0141,30.0113 62.8025,30.0113 C63.5477,30.0113 64.1498,30.2559 64.6093,30.7426 C65.0688,31.2308 65.2984,31.8739 65.2984,32.671 C65.2984,33.4905 65.06,34.1524 64.5832,34.6542 C64.1075,35.1559 63.4856,35.4068 62.7194,35.4068 L62.7194,35.4068 Z M62.7701,31.0233 C62.358,31.0233 62.0303,31.1772 61.7879,31.4876 C61.5459,31.7968 61.4243,32.2053 61.4243,32.7147 C61.4243,33.2312 61.5459,33.6396 61.7879,33.9415 C62.0303,34.242 62.3481,34.3922 62.7404,34.3922 C63.1466,34.3922 63.4669,34.2457 63.7053,33.9537 C63.9426,33.6609 64.0616,33.2558 64.0616,32.7368 C64.0616,32.1954 63.9462,31.7744 63.7163,31.474 C63.4856,31.1735 63.1701,31.0233 62.7701,31.0233 L62.7701,31.0233 Z M75.9144,35.316 L74.7284,35.316 L72.5777,32.0378 C72.4522,31.8464 72.364,31.7024 72.3155,31.6058 L72.3019,31.6058 C72.3206,31.7895 72.3306,32.0712 72.3306,32.4488 L72.3306,35.316 L71.2205,35.316 L71.2205,30.0994 L72.487,30.0994 L74.5572,33.2745 C74.6516,33.4185 74.7383,33.5603 74.8191,33.7006 L74.8338,33.7006 C74.814,33.5801 74.8041,33.3403 74.8041,32.984 L74.8041,30.0994 L75.9144,30.0994 L75.9144,35.316 Z M85.292,35.316 L82.1628,35.316 L82.1628,30.0994 L85.1715,30.0994 L85.1715,31.0556 L83.3386,31.0556 L83.3386,32.2166 L85.0448,32.2166 L85.0448,33.1691 L83.3386,33.1691 L83.3386,34.3625 L85.292,34.3625 L85.292,35.316 Z M95.1166,30.0994 L93.418,33.4608 L93.418,35.316 L92.2431,35.316 L92.2431,33.482 L90.5879,30.0994 L91.9304,30.0994 L92.7709,32.0451 C92.7859,32.0811 92.8256,32.224 92.8902,32.4712 L92.905,32.4712 C92.9373,32.296 92.9747,32.1594 93.0181,32.0602 L93.8736,30.0994 L95.1166,30.0994 Z M112.1449,35.1162 L112.1449,33.9514 C112.356,34.1289 112.5856,34.2618 112.8328,34.35 C113.08,34.4382 113.3294,34.4829 113.5817,34.4829 C113.7306,34.4829 113.8598,34.4691 113.9689,34.443 C114.0795,34.4158 114.1713,34.3798 114.2459,34.3313 C114.3204,34.2842 114.3751,34.2284 114.4111,34.1649 C114.4483,34.1003 114.4659,34.0308 114.4659,33.9551 C114.4659,33.8534 114.4372,33.7627 114.3788,33.683 C114.3204,33.6025 114.2411,33.528 114.1404,33.4608 C114.0398,33.3925 113.9208,33.3267 113.7816,33.2646 C113.6438,33.2014 113.4947,33.1368 113.3346,33.071 C112.9272,32.9021 112.6231,32.6946 112.4232,32.4488 C112.2231,32.2042 112.1239,31.9085 112.1239,31.5621 C112.1239,31.2903 112.1772,31.0567 112.2866,30.862 C112.3957,30.6655 112.5448,30.5054 112.7322,30.3787 C112.921,30.2534 113.1384,30.1601 113.3856,30.1006 C113.6325,30.0411 113.8947,30.0113 114.1713,30.0113 C114.4435,30.0113 114.6844,30.0286 114.8942,30.0609 C115.1028,30.0932 115.2964,30.1442 115.4741,30.2123 L115.4741,31.3002 C115.386,31.2393 115.2916,31.186 115.1884,31.14 C115.0855,31.0941 114.9786,31.0556 114.8692,31.0244 C114.7612,30.9946 114.6521,30.9722 114.5441,30.9575 C114.4361,30.9439 114.334,30.9362 114.2374,30.9362 C114.1033,30.9362 113.9828,30.9487 113.8734,30.9737 C113.7643,30.9997 113.6722,31.0357 113.5965,31.0817 C113.5219,31.1276 113.4638,31.1823 113.4216,31.2469 C113.3805,31.3113 113.3606,31.3833 113.3606,31.4629 C113.3606,31.5511 113.383,31.6293 113.4289,31.6976 C113.4749,31.7671 113.5406,31.8328 113.6262,31.8949 C113.7107,31.9559 113.8139,32.0168 113.9355,32.0763 C114.056,32.1359 114.1937,32.1968 114.3465,32.26 C114.5551,32.347 114.7414,32.44 114.9078,32.5381 C115.0742,32.6365 115.217,32.7481 115.335,32.8709 C115.4543,32.9953 115.545,33.1368 115.6082,33.2958 C115.6714,33.4534 115.7026,33.6385 115.7026,33.8494 C115.7026,34.1414 115.6479,34.3849 115.5374,34.5833 C115.4268,34.7809 115.278,34.941 115.0878,35.0626 C114.8993,35.1857 114.6793,35.2738 114.4284,35.3271 C114.1764,35.3807 113.912,35.4068 113.6325,35.4068 C113.347,35.4068 113.0749,35.3832 112.8167,35.3348 C112.5584,35.2863 112.3336,35.2129 112.1449,35.1162 L112.1449,35.1162 Z M126.2053,35.316 L124.9251,35.316 L124.5538,34.155 L122.6985,34.155 L122.3311,35.316 L121.057,35.316 L122.9568,30.0994 L124.3503,30.0994 L126.2053,35.316 Z M124.2842,33.2536 L123.7244,31.5 C123.6833,31.3685 123.6535,31.212 123.6362,31.0306 L123.6076,31.0306 C123.5951,31.1834 123.5654,31.3351 123.5169,31.4853 L122.9494,33.2536 L124.2842,33.2536 Z M135.8465,30.0994 L134.0482,35.316 L132.717,35.316 L130.9414,30.0994 L132.2079,30.0994 L133.2958,33.7303 C133.3542,33.9265 133.3888,34.0991 133.4013,34.2505 L133.4226,34.2505 C133.4398,34.0881 133.477,33.9092 133.5354,33.7153 L134.6157,30.0994 L135.8465,30.0994 Z M144.6565,35.316 L141.5274,35.316 L141.5274,30.0994 L144.5361,30.0994 L144.5361,31.0556 L142.7032,31.0556 L142.7032,32.2166 L144.4094,32.2166 L144.4094,33.1691 L142.7032,33.1691 L142.7032,34.3625 L144.6565,34.3625 L144.6565,35.316 Z M159.6694,31.0556 L158.1806,31.0556 L158.1806,35.316 L157.002,35.316 L157.002,31.0556 L155.522,31.0556 L155.522,30.0994 L159.6694,30.0994 L159.6694,31.0556 Z M169.9424,35.316 L168.7641,35.316 L168.7641,33.1915 L166.6032,33.1915 L166.6032,35.316 L165.4274,35.316 L165.4274,30.0994 L166.6032,30.0994 L166.6032,32.1806 L168.7641,32.1806 L168.7641,30.0994 L169.9424,30.0994 L169.9424,35.316 Z M179.3214,35.316 L176.1923,35.316 L176.1923,30.0994 L179.2009,30.0994 L179.2009,31.0556 L177.3681,31.0556 L177.3681,32.2166 L179.0742,32.2166 L179.0742,33.1691 L177.3681,33.1691 L177.3681,34.3625 L179.3214,34.3625 L179.3214,35.316 Z M191.8457,33.5192 L191.8457,35.316 L190.6699,35.316 L190.6699,30.0994 L192.5113,30.0994 C193.8263,30.0994 194.4834,30.6533 194.4834,31.7623 C194.4834,32.2861 194.2946,32.7096 193.917,33.0336 C193.5394,33.3565 193.0366,33.5192 192.4059,33.5192 L191.8457,33.5192 Z M191.8457,31.0009 L191.8457,32.6277 L192.3078,32.6277 C192.9337,32.6277 193.2466,32.3533 193.2466,31.8056 C193.2466,31.269 192.9337,31.0009 192.3078,31.0009 L191.8457,31.0009 Z M203.4102,35.316 L200.3035,35.316 L200.3035,30.0994 L201.4793,30.0994 L201.4793,34.3625 L203.4102,34.3625 L203.4102,35.316 Z M213.9205,35.316 L212.6404,35.316 L212.2691,34.155 L210.4138,34.155 L210.0464,35.316 L208.7723,35.316 L210.672,30.0994 L212.0655,30.0994 L213.9205,35.316 Z M211.9995,33.2536 L211.4397,31.5 C211.3986,31.3685 211.3688,31.212 211.3515,31.0306 L211.3229,31.0306 C211.3104,31.1834 211.2806,31.3351 211.2322,31.4853 L210.6647,33.2536 L211.9995,33.2536 Z M224.3217,35.316 L223.1357,35.316 L220.985,32.0378 C220.8595,31.8464 220.7713,31.7024 220.7228,31.6058 L220.7092,31.6058 C220.7279,31.7895 220.7379,32.0712 220.7379,32.4488 L220.7379,35.316 L219.6278,35.316 L219.6278,30.0994 L220.8943,30.0994 L222.9645,33.2745 C223.0589,33.4185 223.1456,33.5603 223.2264,33.7006 L223.2411,33.7006 C223.2213,33.5801 223.2114,33.3403 223.2114,32.984 L223.2114,30.0994 L224.3217,30.0994 L224.3217,35.316 Z M233.6993,35.316 L230.5701,35.316 L230.5701,30.0994 L233.5788,30.0994 L233.5788,31.0556 L231.7459,31.0556 L231.7459,32.2166 L233.4521,32.2166 L233.4521,33.1691 L231.7459,33.1691 L231.7459,34.3625 L233.6993,34.3625 L233.6993,35.316 Z M243.3215,31.0556 L241.8327,31.0556 L241.8327,35.316 L240.6541,35.316 L240.6541,31.0556 L239.1741,31.0556 L239.1741,30.0994 L243.3215,30.0994 L243.3215,31.0556 Z" id="Fill-23" fill="#7CB100"></path>
                <path d="M103.6698,31.656 C104.2509,31.656 104.7218,32.1268 104.7218,32.7079 C104.7218,33.289 104.2509,33.7598 103.6698,33.7598 C103.0884,33.7598 102.6176,33.289 102.6176,32.7079 C102.6176,32.1268 103.0884,31.656 103.6698,31.656" id="Fill-24" fill="#7CB100"></path>
            </g>
        </g>
    </g>
</svg>