<?xml version="1.0" encoding="UTF-8" standalone="no"?>
<svg width="285px" height="285px" viewBox="0 0 285 285" version="1.1" xmlns="http://www.w3.org/2000/svg" xmlns:xlink="http://www.w3.org/1999/xlink">
    <!-- Generator: Sketch 3.8.3 (29802) - http://www.bohemiancoding.com/sketch -->
    <title>Step3</title>
    <desc>Created with Sketch.</desc>
    <defs>
        <path d="M246.98626,131.032673 C246.999737,130.356739 247.006508,129.67916 247.006508,129 C247.006508,73.771525 202.234983,29 147.006508,29 C127.320533,29 108.963153,34.6883937 93.4884023,44.5111481 L49.9254926,36.0540714 L67.531231,68.2981037 C59.9674265,78.1861692 54.2071884,89.5271362 50.7418252,101.829696 C49.7796818,105.24545 14,103.288821 14,103.288821 C14,103.288821 14.0087305,135.305943 14.006508,141 C13.9928621,175.959534 91.778033,229 147.006508,229 C196.280424,229 237.230704,193.362277 245.488179,146.456001 C249.043336,146.962406 253.938701,146.673062 260.571529,144.556775 C279.236762,138.601397 279.664112,115.935386 260.571529,115.935386 C270.145207,127.725096 258.868309,132.641691 246.98626,131.032673 Z M258.073551,146.000788 C261.269441,145.747214 265.316949,143.783884 267.066339,141.943468 C274.430824,148.69916 280.528863,141.068096 283.29054,143.084819 C286.052217,145.101542 264.758226,157.170757 258.073551,146.000788 Z" id="path-1"></path>
        <mask id="mask-2" maskContentUnits="userSpaceOnUse" maskUnits="objectBoundingBox" x="0" y="0" width="269.536199" height="200" fill="white">
            <use xlink:href="#path-1"></use>
        </mask>
    </defs>
    <g id="Page-1" stroke="none" stroke-width="1" fill="none" fill-rule="evenodd">
        <g id="Step3">
            <path d="M115.539746,151.344689 L133.709419,149.140281 C134.288357,153.771789 135.847015,157.312168 138.385438,159.761523 C140.92386,162.210878 143.996642,163.435538 147.603874,163.435538 C151.478309,163.435538 154.740356,161.965947 157.390114,159.02672 C160.039871,156.087494 161.364729,152.124051 161.364729,147.136273 C161.364729,142.415697 160.095537,138.674919 157.557114,135.913828 C155.018691,133.152736 151.923643,131.772211 148.271877,131.772211 C145.867055,131.772211 142.994673,132.239808 139.654643,133.175017 L141.725451,117.877756 C146.802297,118.011357 150.676673,116.909163 153.348697,114.571142 C156.020721,112.233121 157.356713,109.12694 157.356713,105.252505 C157.356713,101.957009 156.376986,99.3295578 154.417502,97.3700735 C152.458017,95.4105892 149.852833,94.4308617 146.60187,94.4308617 C143.395442,94.4308617 140.656658,95.5441884 138.385438,97.7708751 C136.114217,99.9975618 134.733692,103.248476 134.243821,107.523714 L116.942552,104.584502 C118.144963,98.6615157 119.959685,93.9298774 122.386774,90.3894456 C124.813862,86.8490137 128.198375,84.0656971 132.540414,82.0394122 C136.882453,80.0131273 141.747691,79 147.136273,79 C156.354756,79 163.747244,81.9391824 169.313961,87.8176353 C173.900936,92.6272786 176.194389,98.0603126 176.194389,104.1169 C176.194389,112.711911 171.49615,119.570003 162.099532,124.691383 C167.710783,125.893794 172.197489,128.588044 175.559786,132.774215 C178.922083,136.960386 180.603206,142.014889 180.603206,147.937876 C180.603206,156.532886 177.463625,163.858576 171.184369,169.915164 C164.905112,175.971752 157.089559,179 147.737475,179 C138.875262,179 131.527306,176.450482 125.693387,171.351369 C119.859468,166.252257 116.474955,159.58343 115.539746,151.344689 L115.539746,151.344689 Z" id="3" fill="#7CB100"></path>
            <circle id="Oval-6" fill="#606062" cx="88" cy="107" r="10"></circle>
            <path d="M260.531955,115.953919 C265.219438,115.953919 269.372012,128.138427 268.761109,130.82454 C265.081831,128.634803 264.299992,125.360901 261.327752,126.019518 C259.056677,126.522764 259.97644,128.133134 259.231486,128.987111 C258.486531,129.841088 251.697208,130.290391 249,130 C247.422274,119.260646 255.844473,115.953919 260.531955,115.953919 Z" id="Rectangle-13" fill="#606062"></path>
            <polygon id="Rectangle-10" fill="#606062" points="77.0127368 208.630349 111.584984 223.193296 90.8958759 251.999999 71 252"></polygon>
            <polygon id="Rectangle-10-Copy" fill="#606062" points="181.170101 222.631078 211.785512 202.065719 221.895876 251.800045 202 251.800046"></polygon>
            <path d="M178.789069,30.0150764 C177.070495,15.9188047 165.060359,5 150.5,5 C136.399147,5 124.690094,15.2405127 122.404145,28.6902335 C130.686576,26.2877827 139.442899,25 148.5,25 C159.100941,25 169.289827,26.7642212 178.789069,30.0150764 Z" id="Combined-Shape" fill="#606062"></path>
            <use id="Combined-Shape" stroke="#A9ABAE" mask="url(#mask-2)" stroke-width="30" xlink:href="#path-1"></use>
        </g>
    </g>
</svg>