<?xml version="1.0" encoding="UTF-8" standalone="no"?>
<svg width="285px" height="285px" viewBox="0 0 285 285" version="1.1" xmlns="http://www.w3.org/2000/svg" xmlns:xlink="http://www.w3.org/1999/xlink">
    <!-- Generator: Sketch 3.8.3 (29802) - http://www.bohemiancoding.com/sketch -->
    <title>Step1</title>
    <desc>Created with Sketch.</desc>
    <defs></defs>
    <g id="Page-1" stroke="none" stroke-width="1" fill="none" fill-rule="evenodd">
        <g id="Step1">
            <g id="Group" transform="translate(15.000000, 29.000000)">
                <path d="M35.8754583,177.124542 C54.1721056,197.316896 80.604904,210 110,210 C133.108893,210 154.387002,202.16148 171.320548,188.998218 L236.710678,254.388348 L254.388348,236.710678 L188.998218,171.320548 C202.16148,154.387002 210,133.108893 210,110 C210,80.604904 197.316896,54.1721056 177.124542,35.8754583 C193.204238,53.6211648 203,77.166621 203,103 C203,158.228475 158.228475,203 103,203 C77.166621,203 53.6211648,193.204238 35.8754583,177.124542 Z" id="Combined-Shape" fill="#606062"></path>
                <path d="M100,200 C155.228475,200 200,155.228475 200,100 C200,44.771525 155.228475,0 100,0 C44.771525,0 0,44.771525 0,100 C0,155.228475 44.771525,200 100,200 Z M100,185 C146.944204,185 185,146.944204 185,100 C185,53.0557963 146.944204,15 100,15 C53.0557963,15 15,53.0557963 15,100 C15,146.944204 53.0557963,185 100,185 Z" id="Combined-Shape" fill="#A9ABAE"></path>
                <path d="M115.019372,148.329993 L96.248497,148.329993 L96.248497,77.5885104 C89.3903019,84.0013681 81.3075504,88.7441396 72,91.8169673 L72,74.7828991 C76.8987108,73.1796847 82.2204122,70.1403029 87.9652639,65.6646627 C93.7101156,61.1890224 97.6512919,55.9675204 99.7889112,50 L115.019372,50 L115.019372,148.329993 Z" id="1" fill="#7CB100"></path>
            </g>
        </g>
    </g>
</svg>