<?xml version="1.0" encoding="UTF-8" standalone="no"?>
<svg width="285px" height="285px" viewBox="0 0 285 285" version="1.1" xmlns="http://www.w3.org/2000/svg" xmlns:xlink="http://www.w3.org/1999/xlink">
    <!-- Generator: Sketch 3.8.3 (29802) - http://www.bohemiancoding.com/sketch -->
    <title>Step2</title>
    <desc>Created with Sketch.</desc>
    <defs></defs>
    <g id="Page-1" stroke="none" stroke-width="1" fill="none" fill-rule="evenodd">
        <g id="Step2">
            <g id="Group-2" transform="translate(40.000000, 1.000000)">
                <path d="M113.487642,158.895124 L113.487642,176.329993 L47.6893788,176.329993 C48.4019185,169.739001 50.5395057,163.493238 54.1022044,157.592518 C57.6649031,151.691799 64.7011276,143.865112 75.2110888,134.112224 C83.6724983,126.229754 88.8606005,120.885786 90.7755511,118.08016 C93.3585077,114.205725 94.6499666,110.375882 94.6499666,106.590514 C94.6499666,102.404343 93.5255067,99.1868293 91.2765531,96.9378758 C89.0275995,94.6889222 85.9214182,93.5644623 81.9579158,93.5644623 C78.0389472,93.5644623 74.9216326,94.7445885 72.6058784,97.1048764 C70.2901242,99.4651643 68.9541323,103.384074 68.5978624,108.861723 L49.8937876,106.991316 C51.0071309,96.6594896 54.5029766,89.2447341 60.3814295,84.746827 C66.2598824,80.2489198 73.6078383,78 82.4255177,78 C92.089338,78 99.6822258,80.6051844 105.204409,85.8156313 C110.726592,91.0260782 113.487642,97.5056393 113.487642,105.254509 C113.487642,109.663349 112.69718,113.86059 111.116232,117.846359 C109.535285,121.832129 107.0303,126.007104 103.601202,130.371409 C101.329982,133.266102 97.2329399,137.429944 91.3099532,142.863059 C85.3869666,148.296175 81.6350558,151.903353 80.0541082,153.684703 C78.4731607,155.466052 77.192835,157.202842 76.2130929,158.895124 L113.487642,158.895124 Z" id="2" fill="#7CB100"></path>
                <path d="M144.522815,48 L167,48 L207,88 L207,248 L47,248 L47,232.96536 L62,233 L192,233 L192,94.6 L159.6875,63 L144.522815,48 Z" id="Combined-Shape-Copy" fill="#606062"></path>
                <path d="M0,68 L40,28 L120,28 L160,68 L160,228 L0,228 L0,68 Z M15,74 L46,43 L113,43 L145,74 L145,213 L15,213 L15,74 Z" id="Combined-Shape" fill="#A9ABAE"></path>
                <rect id="Rectangle-6" fill="#606062" x="75" y="0" width="12" height="60" rx="6"></rect>
                <path d="M127,32 L127,23.9981851 C127,20.685479 129.693034,18 133,18 L133,18 C136.313708,18 139,20.6845286 139,23.9975713 L139,44 L127,32 Z" id="Rectangle-6-Copy" fill="#606062"></path>
            </g>
        </g>
    </g>
</svg>